# AST/ASF file generated using VICON BodyLanguage
# -----------------------------------------------
:version 1.10
:name VICON
:units
  mass 1.0
  length 0.45
  angle deg
:documentation
   .ast/.asf automatically generated from VICON data using
   VICON BodyBuilder and BodyLanguage model FoxedUp or BRILLIANT.MOD
:root
   order TX TY TZ RX RY RZ
   axis XYZ
   position 0 0 0  
   orientation 0 0 0 
:bonedata
  begin
     id 1 
     name lhipjoint
     direction 0.610259 -0.730986 0.305356 
     length 2.50941 
     axis 0 0 0  XYZ
  end
  begin
     id 2 
     name lfemur
     direction 0.34202 -0.939693 0  
     length 7.48822  
     axis 0 0 20  XYZ
    dof rx ry rz
    limits (-160.0 20.0)
           (-70.0 70.0)
           (-60.0 70.0)
  end
  begin
     id 3 
     name ltibia
     direction 0.34202 -0.939693 0   
     length 7.60141   
     axis 0 0 20   XYZ
    dof rx
    limits (-10.0 170.0)
  end
  begin
     id 4 
     name lfoot
     direction 0.0673488 -0.185039 0.980421   
     length 2.04049   
     axis -90 7.62852e-016 20   XYZ
    dof rx rz
    limits (-45.0 90.0)
           (-70.0 20.0)
  end
  begin
     id 5 
     name ltoes
     direction 1.5356e-011 -4.21729e-011 1   
     length 1.02897   
     axis -90 7.62852e-016 20   XYZ
    dof rx
    limits (-90.0 20.0)
  end
  begin
     id 6 
     name rhipjoint
     direction -0.57612 -0.754205 0.315056   
     length 2.43216  
     axis 0 0 0  XYZ 
  end
  begin
     id 7 
     name rfemur
     direction -0.34202 -0.939693 0   
     length 7.42799   
     axis 0 0 -20   XYZ
    dof rx ry rz
    limits (-160.0 20.0)
           (-70.0 70.0)
           (-70.0 60.0)
  end
  begin
     id 8 
     name rtibia
     direction -0.34202 -0.939693 0   
     length 7.69484   
     axis 0 0 -20   XYZ
    dof rx
    limits (-10.0 170.0)
 end
 begin
     id 9 
     name rfoot
     direction -0.111837 -0.30727 0.945028   
     length 2.15769  
     axis -90 -7.62852e-016 -20   XYZ
    dof rx rz
    limits (-45.0 90.0)
           (-20.0 70.0)
  end
  begin
     id 10 
     name rtoes
     direction -1.53539e-011 -4.21878e-011 1   
     length 1.07391   
     axis -90 -7.62852e-016 -20   XYZ
    dof rx
    limits (-90.0 20.0)
  end
  begin
     id 11 
     name lowerback
     direction 0.00552624 0.990109 -0.140195   
     length 2.12403   
     axis 0 0 0   XYZ
    dof rx ry rz
    limits (-20.0 45.0)
           (-30.0 30.0)
           (-30.0 30.0)
  end
  begin
     id 12 
     name upperback
     direction 0.00361898 0.999976 -0.00584723   
     length 2.13232   
     axis 0 0 0   XYZ
    dof rx ry rz
    limits (-20.0 45.0)
           (-30.0 30.0)
           (-30.0 30.0)
  end
  begin
     id 13 
     name thorax
     direction -0.000331275 0.998253 0.0590847   
     length 2.17688   
     axis 0 0 0   XYZ
    dof rx ry rz
    limits (-20.0 45.0)
           (-30.0 30.0)
           (-30.0 30.0)
  end
  begin
     id 14 
     name lowerneck
     direction -0.0561561 0.979832 0.19177   
     length 1.64159   
     axis 0 0 0   XYZ
    dof rx ry rz
    limits (-20.0 45.0)
           (-30.0 30.0)
           (-30.0 30.0)
  end
  begin
     id 15 
     name upperneck
     direction 0.0827153 0.979385 -0.184293   
     length 1.68939   
     axis 0 0 0   XYZ
    dof rx ry rz
    limits (-20.0 45.0)
           (-30.0 30.0)
           (-30.0 30.0)
  end
  begin
     id 16
     name head
     direction 0.0278583 0.995936 -0.0856488  
     length 1.70207  
     axis 0 0 0   XYZ
    dof rx ry rz
    limits (-20.0 45.0)
           (-30.0 30.0)
           (-30.0 30.0)
  end
  begin
     id 17 
     name lclavicle
     direction 0.950993 0.301131 -0.0702275  
     length 3.41652  
     axis 0 0 0   XYZ
    dof ry rz
    limits (-20.0 10.0)
           (0.0 20.0)
  end
  begin
     id 18 
     name lhumerus
     direction 1 -4.48981e-011 -3.9662e-029   
     length 5.32955   
     axis 180 -30 -90   XYZ
    dof rx ry rz
    limits (-60.0 90.0)
           (-90.0 90.0)
           (-90.0 90.0)
  end
  begin
     id 19
     name lradius
     direction 1 -4.48925e-011 -9.0549e-027   
     length 3.69232   
     axis 180 -30 -90   XYZ
    dof rx
    limits (-10.0 170.0)
  end
  begin
     id 20
     name lwrist
     direction 1 -4.49007e-011 -1.49005e-026   
     length 1.84616   
     axis 9.0955e-015 90 90   XYZ
    dof ry
    limits (-180.0 0.0)
 end
  begin
     id 21 
     name lhand
     direction 1 -4.49016e-011 -2.98023e-026   
     length 0.536598   
     axis 1.90115e-014 90 90   XYZ
    dof rx rz
    limits (-90.0 90.0)
           (-45.0 45.0)
  end
  begin
     id 22 
     name lfingers
     direction 1 -4.48924e-011 -5.9578e-026   
     length 0.432619   
     axis 3.80223e-014 90 90   XYZ
    dof rx
    limits (0.0 90.0)
  end
  begin
     id 23
     name lthumb
     direction 0.707107 -6.34947e-011 0.707107   
     length 0.621157   
     axis -90 45 -3.84942e-014   XYZ
    dof rx rz
    limits (-45.0 45.0)
           (-45.0 45.0)
  end
  begin
     id 24 
     name rclavicle
     direction -0.955495 0.276497 -0.102848   
     length 3.36357  
     axis 0 0 0   XYZ 
    dof ry rz
    limits (-10.0 20.0)
           (-20.0 0.0)
  end
  begin
     id 25 
     name rhumerus
     direction -1 -4.48961e-011 3.30983e-027  
     length 5.23431   
     axis 180 30 90   XYZ
    dof rx ry rz
    limits (-90.0 60.0)
           (-90.0 90.0)
           (-90.0 90.0)
  end
  begin
     id 26 
     name rradius
     direction -1 -4.48965e-011 -6.63263e-027   
     length 3.55301   
     axis 180 30 90   XYZ
    dof rx
    limits (-10.0 170.0)
  end
  begin
     id 27 
     name rwrist
     direction -1 -4.48942e-011 -1.48958e-026   
     length 1.77651   
     axis 9.0955e-015 -90 -90   XYZ
    dof ry
    limits (-180.0 0.0)
  end
  begin
     id 28
     name rhand
     direction -1 -4.48977e-011 -2.97966e-026   
     length 0.772522   
     axis 1.90115e-014 -90 -90   XYZ
    dof rx rz
    limits (-90.0 90.0)
           (-45.0 45.0)
  end
  begin
     id 29
     name rfingers
     direction -1 -4.49135e-011 -5.96389e-026   
     length 0.622827   
     axis 3.80223e-014 -90 -90   XYZ
    dof rx
    limits (0.0 90.0)
  end
  begin
     id 30
     name rthumb
     direction -0.707107 -6.34969e-011 0.707107   
     length 0.894259   
     axis -90 -45 3.84942e-014   XYZ
    dof rx rz
    limits (-45.0 45.0)
           (-45.0 45.0)
  end
:hierarchy
  begin
    root lhipjoint rhipjoint lowerback
    lhipjoint lfemur
    lfemur ltibia
    ltibia lfoot
    lfoot ltoes
    rhipjoint rfemur
    rfemur rtibia
    rtibia rfoot
    rfoot rtoes
    lowerback upperback
    upperback thorax
    thorax lowerneck lclavicle rclavicle
    lowerneck upperneck
    upperneck head
    lclavicle lhumerus
    lhumerus lradius
    lradius lwrist
    lwrist lhand lthumb
    lhand lfingers
    rclavicle rhumerus
    rhumerus rradius
    rradius rwrist
    rwrist rhand rthumb
    rhand rfingers
  end

#!OML:ASF F:\VICON\USERDATA\INSTALL\rory3\rory3.ASF
:FULLY-SPECIFIED
:DEGREES
47
root 10.146 17.6364 -17.1069 -184.204 87.3612 -182.487
lowerback 10.8834 -0.88916 -4.42021
upperback 1.04676 -1.58773 1.54704
thorax -4.84334 -0.662725 4.35213
lowerneck -9.81341 -9.05436 -13.1555
upperneck 37.4237 -11.6611 7.87148
head 16.4371 -5.27375 3.87853
rclavicle 4.32357e-015 9.93923e-016
rhumerus -38.6023 -25.2878 -73.1201
rradius 30.8657
rwrist 6.57221
rhand -24.2786 10.1736
rfingers 7.12502
rthumb 2.20829 -19.7947
lclavicle 4.32357e-015 9.93923e-016
lhumerus -34.715 11.7492 73.2794
lradius 26.2727
lwrist -7.46083
lhand -18.2076 27.3043
lfingers 7.12502
lthumb 8.07002 57.1302
rfemur -4.91888 5.48625 5.63078
rtibia 27.3072
rfoot -11.4829 -6.10923
rtoes -15.2974
lfemur -0.844118 -10.2911 -7.00491
ltibia 18.2512
lfoot -8.81627 -0.114399
ltoes -28.5188
48
root 10.1351 17.6373 -17.0051 -171.365 87.0663 -169.871
lowerback 10.9916 -0.915507 -3.15442
upperback 0.869756 -1.48096 1.47123
thorax -5.13548 -0.627618 3.54558
lowerneck -9.9128 -8.97494 -12.833
upperneck 37.7506 -11.4983 7.61787
head 16.5556 -5.17775 3.7532
rclavicle 1.64991e-014 -7.95139e-015
rhumerus -38.7744 -25.5783 -73.3009
rradius 30.8959
rwrist 6.73951
rhand -24.17 10.1751
rfingers 7.12502
rthumb 2.31321 -19.7921
lclavicle 1.64991e-014 -7.95139e-015
lhumerus -35.0449 10.3352 73.5476
lradius 27.4685
lwrist -6.40879
lhand -18.1982 28.5461
lfingers 7.12502
lthumb 8.07907 58.3717
rfemur -5.10411 4.49275 6.72888
rtibia 27.3276
rfoot -11.9352 -6.21814
rtoes -16.1941
lfemur -1.38929 -10.6655 -5.89587
ltibia 18.5843
lfoot -8.41592 -0.0797633
ltoes -28.0623
49
root 10.1326 17.6379 -16.8736 -164.356 86.8149 -162.95
lowerback 11.0366 -0.878312 -2.6747
upperback 0.826597 -1.36946 1.54168
thorax -5.22482 -0.579873 3.33346
lowerneck -10.0183 -8.84945 -12.906
upperneck 37.9715 -11.2198 7.51714
head 16.6558 -5.07498 3.78118
rclavicle 7.69048e-015 -3.77691e-015
rhumerus -38.6407 -25.4513 -73.4992
rradius 30.8009
rwrist 6.75195
rhand -23.9374 10.4646
rfingers 7.12502
rthumb 2.53779 -19.5
lclavicle 7.69048e-015 -3.77691e-015
lhumerus -35.0645 10.4046 73.379
lradius 27.9475
lwrist -6.93104
lhand -17.6267 28.7643
lfingers 7.12502
lthumb 8.63062 58.5679
rfemur -5.19031 3.6303 7.70761
rtibia 27.327
rfoot -12.3585 -6.37316
rtoes -16.8902
lfemur -1.72172 -10.9615 -4.94503
ltibia 18.7924
lfoot -7.90514 -0.0536326
ltoes -27.2202
50
root 10.1394 17.6394 -16.737 -166.21 86.5974 -164.507
lowerback 11.2981 -0.8112 -2.738
upperback 0.968345 -1.28979 1.52018
thorax -5.22673 -0.539162 3.33894
lowerneck -10.0486 -8.71907 -12.9216
upperneck 38.0554 -10.9384 7.371
head 16.6537 -4.97336 3.77552
rclavicle 1.34925e-014 -1.53064e-014
rhumerus -38.4324 -25.199 -73.7618
rradius 30.7798
rwrist 6.68796
rhand -23.7302 10.5739
rfingers 7.12502
rthumb 2.7379 -19.3882
lclavicle 1.34925e-014 -1.53064e-014
lhumerus -34.8898 10.698 73.1883
lradius 28.1659
lwrist -7.03587
lhand -18.143 28.6757
lfingers 7.12502
lthumb 8.13232 58.4992
rfemur -4.77072 2.79116 8.21273
rtibia 27.2621
rfoot -12.8849 -6.48422
rtoes -15.7795
lfemur -1.56398 -11.2615 -4.58145
ltibia 18.9153
lfoot -7.34586 -0.0344461
ltoes -26.0813
51
root 10.1498 17.6387 -16.599 -168.143 86.444 -165.919
lowerback 11.7641 -0.717437 -2.77401
upperback 1.17019 -1.17599 1.44916
thorax -5.28328 -0.481194 3.27501
lowerneck -10.1573 -8.62253 -12.8499
upperneck 38.2244 -10.7183 7.20964
head 16.718 -4.88352 3.73721
rclavicle -1.99406e-014 1.39149e-015
rhumerus -38.2269 -24.9069 -74.1275
rradius 30.7502
rwrist 6.64534
rhand -23.7796 10.4296
rfingers 7.12502
rthumb 2.69023 -19.5332
lclavicle -1.99406e-014 1.39149e-015
lhumerus -34.7793 10.8826 72.988
lradius 28.5519
lwrist -6.3657
lhand -21.2309 28.9465
lfingers 7.12502
lthumb 5.15145 58.8639
rfemur -4.05281 2.43562 8.77438
rtibia 27.1424
rfoot -13.3488 -6.98085
rtoes -13.902
lfemur -1.10145 -11.4921 -4.3075
ltibia 19.0079
lfoot -6.74057 0.0971471
ltoes -26.2198
52
root 10.1502 17.6447 -16.4666 -167.17 86.3433 -164.908
lowerback 11.8873 -0.659594 -2.63241
upperback 1.19593 -1.08145 1.45194
thorax -5.33452 -0.436221 3.18513
lowerneck -10.3149 -8.50439 -13.0252
upperneck 38.4736 -10.433 7.15648
head 16.8624 -4.78747 3.80539
rclavicle 9.31803e-015 -1.13307e-014
rhumerus -38.0097 -24.3662 -74.4901
rradius 30.7712
rwrist 6.64073
rhand -23.5825 10.1929
rfingers 7.12502
rthumb 2.88057 -19.7674
lclavicle 9.31803e-015 -1.13307e-014
lhumerus -34.7989 11.5536 72.6999
lradius 28.973
lwrist -6.11418
lhand -20.7695 28.3469
lfingers 7.12502
lthumb 5.59685 58.253
rfemur -3.86275 2.18148 9.43888
rtibia 26.9443
rfoot -13.7586 -7.41229
rtoes -12.0554
lfemur -1.15701 -11.4501 -3.81729
ltibia 19.0838
lfoot -5.87892 0.387191
ltoes -27.6116
53
root 10.1361 17.6615 -16.3474 -158.497 85.9854 -156.871
lowerback 11.4646 -0.675157 -1.75184
upperback 1.01965 -0.98191 1.53314
thorax -5.30565 -0.406572 2.74935
lowerneck -10.4299 -8.44106 -12.9497
upperneck 38.6487 -10.2653 6.99936
head 16.9423 -4.71908 3.75804
rclavicle 2.33572e-015 -9.83984e-015
rhumerus -37.8727 -24.1841 -74.7812
rradius 30.7619
rwrist 6.85049
rhand -23.4618 10.3259
rfingers 7.12502
rthumb 2.99714 -19.6328
lclavicle 2.33572e-015 -9.83984e-015
lhumerus -34.7037 12.4832 72.3422
lradius 29.221
lwrist -6.44231
lhand -20.5843 27.9011
lfingers 7.12502
lthumb 5.77569 57.8024
rfemur -4.44218 1.80382 10.5732
rtibia 26.7103
rfoot -14.1598 -7.48993
rtoes -8.81274
lfemur -2.07731 -11.2866 -2.61179
ltibia 19.2163
lfoot -4.9567 0.633805
ltoes -27.4364
54
root 10.1373 17.6801 -16.2139 -151.263 85.6992 -149.714
lowerback 11.423 -0.548436 -1.17277
upperback 1.01658 -0.729877 1.66732
thorax -5.30636 -0.293023 2.52226
lowerneck -10.3771 -8.4284 -12.7316
upperneck 38.725 -10.2046 6.77804
head 16.9239 -4.68493 3.63676
rclavicle 1.87603e-015 6.55989e-015
rhumerus -37.7899 -23.96 -74.9757
rradius 30.7328
rwrist 6.69114
rhand -23.2476 10.8286
rfingers 7.12502
rthumb 3.20399 -19.1271
lclavicle 1.87603e-015 6.55989e-015
lhumerus -34.6676 13.2911 72.0942
lradius 29.546
lwrist -6.95523
lhand -20.4262 27.6938
lfingers 7.12502
lthumb 5.92836 57.5909
rfemur -4.38414 1.87962 11.8056
rtibia 26.4116
rfoot -14.3092 -7.86626
rtoes -8.13914
lfemur -2.38107 -11.3126 -1.58995
ltibia 19.53
lfoot -4.27715 1.10323
ltoes -27.3531
55
root 10.1327 17.7065 -16.0852 -150.379 85.4649 -148.9
lowerback 11.4642 -0.435942 -0.960287
upperback 1.02701 -0.551724 1.67919
thorax -5.32958 -0.209202 2.38697
lowerneck -10.2869 -8.42925 -12.6836
upperneck 38.7517 -10.1915 6.73488
head 16.9066 -4.67418 3.61651
rclavicle -2.48481e-015 -4.17448e-015
rhumerus -37.658 -23.3862 -75.318
rradius 30.8739
rwrist 6.18006
rhand -23.0206 10.8154
rfingers 7.12502
rthumb 3.42319 -19.1369
lclavicle -2.48481e-015 -4.17448e-015
lhumerus -34.5884 13.8258 72.0097
lradius 29.9512
lwrist -7.09386
lhand -20.4864 27.638
lfingers 7.12502
lthumb 5.87025 57.5367
rfemur -4.2531 1.64663 12.5476
rtibia 26.0159
rfoot -14.0086 -8.18945
rtoes -10.879
lfemur -2.86935 -11.3946 -1.07849
ltibia 20.0067
lfoot -3.45967 1.5965
ltoes -26.6545
